# xmcd CD database file
#
# Track frame offsets:
#	20201
#	48393
#	81104
#	113625
#	147774
#	215164
#
# Disc length: 3918 seconds
#
# Revision: 2
# Processed by: cddbd v1.5.1PL0 Copyright (c) Steve Scherf et al.
# Submitted via: CDex 1.51
#
DISCID=5f0e4106
DTITLE=Godflesh - Merciless
DYEAR=1994
DGENRE=Industrial
TTITLE0=Merciless
TTITLE1=Blind
TTITLE2=Unworthy
TTITLE3=Flowers
TTITLE4=Crush My Soul (ultramix)
TTITLE5=Xnoybix (psychofuckdub)
EXTD=YEAR: 1994
EXTT0=
EXTT1=
EXTT2=
EXTT3=
EXTT4=
EXTT5=
PLAYORDER=
